<?xml version="1.0" encoding="UTF-8"?>
<svg id="Ebene_2" data-name="Ebene 2" xmlns="http://www.w3.org/2000/svg" viewBox="0 0 510.24 510.24">
  <g id="Ebene_1-2" data-name="Ebene 1">
    <path class="cls-1" d="m490.14,77c-12.83-24.24-32.65-44.07-56.89-56.9C408.73,7,384.4,0,317.32,0h-124.41c-67.08,0-91.4,7-115.91,20.1-24.25,12.83-44.07,32.65-56.9,56.9C7,101.51,0,125.83,0,192.91v124.41c0,67.08,7,91.41,20.1,115.93,12.83,24.24,32.66,44.06,56.9,56.89,24.53,13.11,48.85,20.1,115.93,20.1h124.39c67.08,0,91.41-7,115.93-20.1,24.24-12.83,44.06-32.65,56.89-56.89,13.11-24.52,20.1-48.85,20.1-115.93v-124.41c0-67.08-6.99-91.4-20.1-115.91Zm-245,291.35c-.04,25.46-20.68,46.08-46.14,46.1h-46.77v-98.75l92.89-92.88.02,145.53Zm0-173.8l-92.89,92.89v-117.19c.04-41.1,33.36-74.42,74.46-74.46h18.43v98.76Zm20,219.44v-204.83c56.56,5.51,97.94,55.83,92.43,112.38-4.77,48.93-43.49,87.66-92.43,92.43v.02Z"/>
  </g>
</svg>